<svg viewBox="0 0 90 90" xmlns="http://www.w3.org/2000/svg"><circle cx="45" cy="45" fill="#94c3cb" r="45"/><path d="m59.81 42.36-14.4 14.14h-4.34l-8-7.57a3.08 3.08 0 0 1 0-4.34l4.61-4.59 9.9-9.9z" fill="#d8d6d5"/><path d="m47.58 30.13 7.23-7.23a3.08 3.08 0 0 1 4.34 0l8 8a3.08 3.08 0 0 1 0 4.34l-7.3 7.17" fill="#e5e6e5"/><path d="m59.87 42.42-9.76 9.71-12.21-11.87 9.68-10.13z" fill="#be5e50"/><g fill="#2a373e"><path d="m44.03 53.49h1.05v1.05h-1.05z" transform="matrix(.70710678 -.70710678 .70710678 .70710678 -25.14 47.33)"/><path d="m43.08 53.27.74-.74-.13-.12-.61-.61-.74.73.61.62z"/><path d="m41.08 50.53h1.05v1.05h-1.05z" transform="matrix(.70710678 -.70710678 .70710678 .70710678 -23.92 44.37)"/><path d="m39.6 49.06h1.05v1.05h-1.05z" transform="matrix(.70710678 -.70710678 .70710678 .70710678 -23.31 42.89)"/><path d="m38.64 48.84.74-.74-.12-.12-.62-.62-.74.74.62.62z"/><path d="m42.09 53.77-.66.66.13.12.66.57.61-.61-.62-.62z"/><path d="m39.87 53.03.42.41.34.3.72-.71-.74-.74z"/><path d="m38.61 51.03h1.05v1.05h-1.05z" transform="matrix(.70710678 -.70710678 .70710678 .70710678 -24.99 42.77)"/><path d="m37.78 49.45-.12-.12-.74.74.12.12.62.62.74-.74z"/><path d="m36.64 46.1h1.05v1.05h-1.05z" transform="matrix(.70710678 -.70710678 .70710678 .70710678 -22.08 39.93)"/><path d="m35.16 44.62h1.05v1.05h-1.05z" transform="matrix(.70710678 -.70710678 .70710678 .70710678 -21.47 38.45)"/><path d="m35.65 48.07h1.05v1.05h-1.05z" transform="matrix(.70710678 -.70710678 .70710678 .70710678 -23.76 39.82)"/><path d="m34.18 46.59h1.05v1.05h-1.05z" transform="matrix(.70710678 -.70710678 .70710678 .70710678 -23.15 38.33)"/><path d="m67.81 30.14-8-8a4.07 4.07 0 0 0 -5.75 0l-21.65 21.74a4.08 4.08 0 0 0 0 5.78l8 7.57a1 1 0 0 0 .69.28h4.34a1 1 0 0 0 .7-.29l21.67-21.32a4.08 4.08 0 0 0 0-5.76zm-20.23 1.4 10.81 10.81-8.56 8.41-10.74-10.76zm-2.58 23.96h-3.53l-7.65-7.27a2.08 2.08 0 0 1 0-2.93l3.85-3.85 10.73 10.71zm21.4-21-6.59 6.47-10.81-10.84 6.52-6.52a2.07 2.07 0 0 1 2.92 0l8 8a2.07 2.07 0 0 1 -.04 2.86z"/><path d="m22 57.5h12.78a1 1 0 0 0 0-2h-12.78a1 1 0 0 0 0 2z"/><path d="m34.78 67h-12.78a1 1 0 0 0 0 2h12.78a1 1 0 0 0 0-2z"/><path d="m45 61.25h-17.89a1 1 0 1 0 0 2h17.89a1 1 0 0 0 0-2z"/></g></svg>