<?xml version="1.0" standalone="no"?>
<!DOCTYPE svg PUBLIC "-//W3C//DTD SVG 20010904//EN"
 "http://www.w3.org/TR/2001/REC-SVG-20010904/DTD/svg10.dtd">
<svg version="1.0" xmlns="http://www.w3.org/2000/svg"
 width="900.000000pt" height="900.000000pt" viewBox="0 0 900.000000 900.000000"
 preserveAspectRatio="xMidYMid meet">
<metadata>
Created by potrace 1.14, written by Peter Selinger 2001-2017
</metadata>
<g transform="translate(0.000000,900.000000) scale(0.100000,-0.100000)"
fill="#000000" stroke="none">
<path d="M7005 7444 c-225 -102 -592 -268 -815 -369 -528 -239 -945 -425 -953
-425 -3 0 12 48 33 108 90 253 192 538 244 680 31 84 56 155 56 157 0 23 -249
-69 -1375 -510 -192 -75 -588 -229 -880 -342 -291 -112 -685 -266 -875 -340
-190 -75 -489 -191 -665 -259 -245 -94 -321 -127 -323 -141 -5 -24 -191 -611
-277 -868 -12 -38 -47 -144 -75 -235 -29 -91 -70 -217 -90 -280 -21 -63 -81
-250 -135 -415 -53 -165 -108 -334 -121 -375 -14 -41 -46 -142 -73 -225 -99
-306 -234 -722 -257 -790 -12 -38 -21 -72 -18 -76 2 -4 39 8 82 28 42 19 216
96 387 170 666 291 1177 514 1319 577 82 37 150 65 152 63 2 -1 -87 -293 -197
-647 -219 -706 -230 -740 -254 -820 -8 -30 -22 -73 -30 -95 -7 -22 -28 -87
-45 -145 -17 -58 -40 -130 -50 -160 -10 -30 -37 -116 -60 -190 -24 -74 -45
-141 -47 -148 -3 -6 2 -12 10 -12 8 0 17 4 19 9 2 5 201 93 443 196 242 103
775 330 1185 505 410 175 806 344 880 375 74 31 455 193 845 360 1274 544
2465 1051 2715 1157 l245 104 46 184 c50 200 138 560 219 895 28 116 75 309
105 430 30 121 77 315 105 430 28 116 71 291 96 389 29 118 41 183 35 189 -7
7 -289 -108 -828 -336 -450 -190 -819 -344 -821 -343 -2 3 40 160 69 251 10
33 23 78 28 100 8 36 37 140 91 325 10 36 47 164 81 285 34 121 72 258 86 305
13 47 31 110 39 140 15 53 31 109 72 253 18 61 18 67 3 66 -9 0 -200 -84 -426
-185z m-85 -549 c-67 -290 -147 -629 -261 -1113 -45 -189 -79 -345 -77 -347 3
-3 350 146 773 330 422 185 768 335 770 333 1 -2 -33 -158 -75 -348 -67 -300
-171 -770 -281 -1270 l-31 -145 -1667 -679 c-916 -374 -2122 -865 -2680 -1093
-558 -227 -1015 -413 -1015 -413 -1 0 58 269 131 597 73 329 159 713 189 853
31 140 69 309 84 375 14 66 24 121 20 123 -3 1 -386 -166 -850 -372 -465 -206
-846 -373 -848 -372 -3 4 31 146 322 1336 57 234 139 570 182 748 l78 322 820
327 c452 179 1203 478 1670 664 468 186 852 337 854 334 6 -6 -11 -76 -189
-764 -16 -63 -27 -116 -24 -119 2 -3 458 198 1012 445 861 385 1142 507 1149
499 1 0 -24 -113 -56 -251z"/>
<path d="M6165 6727 l-180 -81 0 -61 c0 -33 -4 -68 -8 -78 -3 -10 -42 -34 -85
-53 l-79 -36 -11 -86 c-5 -48 -9 -88 -7 -90 2 -2 37 12 79 32 58 27 76 31 76
20 0 -8 -14 -119 -31 -246 -37 -266 -35 -296 19 -312 54 -15 131 9 315 101 95
47 174 87 176 89 5 5 30 168 26 172 -1 2 -24 -10 -49 -27 -46 -29 -142 -59
-153 -48 -6 6 46 402 57 432 5 13 43 36 108 65 111 49 107 44 118 154 8 80 16
79 -123 15 l-83 -38 0 28 c0 15 7 50 15 77 8 27 15 50 15 52 0 7 -30 -6 -195
-81z"/>
<path d="M4280 6510 c-228 -104 -455 -207 -504 -229 l-89 -41 32 -29 c17 -16
31 -33 31 -38 0 -20 -110 -786 -113 -790 -2 -1 -212 91 -467 207 l-463 210
-483 -218 -483 -217 30 -30 c16 -17 29 -40 29 -52 0 -22 -186 -1370 -196
-1415 -3 -15 -23 -55 -45 -89 -31 -47 -36 -60 -22 -56 10 3 214 94 453 202
239 108 446 201 459 206 l24 10 -20 22 c-45 49 -46 35 33 602 41 297 76 541
78 542 6 6 75 -24 550 -237 l457 -205 -6 -45 c-7 -49 -53 -156 -85 -197 -11
-14 -19 -28 -17 -29 2 -2 224 96 493 217 269 122 500 225 513 230 l24 10 -20
22 c-11 12 -25 31 -30 42 -8 15 16 213 87 725 99 721 101 732 154 805 35 47
38 55 24 54 -7 -1 -200 -86 -428 -189z"/>
<path d="M5493 6260 c-57 -20 -739 -319 -760 -334 -4 -3 -24 -177 -21 -186 2
-6 21 4 43 23 46 39 551 271 572 263 23 -9 14 -45 -19 -81 -23 -23 -76 -53
-173 -96 -286 -127 -399 -218 -439 -357 -25 -88 -30 -218 -9 -277 28 -77 44
-75 290 36 181 82 210 98 242 137 35 42 36 43 41 18 l5 -25 175 79 175 79 -2
48 c-2 26 13 169 33 316 38 286 38 324 -1 363 -30 30 -50 29 -152 -6z m-216
-527 c-4 -21 -9 -64 -13 -95 -6 -52 -11 -62 -51 -99 -47 -43 -114 -78 -150
-79 -19 0 -23 5 -23 33 1 73 19 161 38 180 18 17 174 94 196 96 5 1 6 -16 3
-36z"/>
<path d="M7585 5660 c-104 -48 -195 -92 -201 -98 -6 -5 -17 -64 -24 -131 -12
-113 -19 -136 -35 -111 -13 20 -49 8 -236 -80 -209 -98 -276 -136 -315 -182
-37 -45 -75 -125 -90 -190 -14 -59 -74 -514 -77 -580 -2 -47 33 -88 75 -88 23
0 765 332 928 415 25 13 26 16 20 75 -4 45 9 180 47 484 44 358 56 431 79 486
14 36 28 71 31 78 3 6 1 12 -3 11 -5 0 -94 -40 -199 -89z m-293 -531 c2 -7 -8
-109 -24 -228 -15 -119 -27 -224 -28 -233 0 -30 -59 -86 -122 -118 -58 -29
-112 -39 -121 -22 -9 15 50 468 64 495 11 21 41 40 110 72 101 47 115 51 121
34z"/>
<path d="M5005 5156 c-33 -13 -481 -218 -995 -456 -514 -238 -954 -440 -976
-450 l-42 -18 20 -95 19 -94 -91 -733 c-49 -402 -90 -735 -90 -739 0 -4 -25
-44 -55 -89 l-54 -82 32 14 c46 20 931 428 936 432 2 1 -11 22 -28 46 l-31 43
14 98 c7 54 17 102 22 106 16 15 524 243 533 239 4 -2 38 -31 75 -65 l67 -62
-40 -63 c-22 -34 -38 -64 -37 -66 3 -2 862 389 920 420 l27 14 -127 105 c-71
57 -135 109 -143 115 -12 10 -8 19 27 60 54 64 125 189 145 256 20 65 129 925
125 982 -3 37 -8 45 -52 74 -59 39 -113 42 -201 8z m-629 -621 c3 -8 -13 -176
-35 -372 -44 -375 -53 -415 -104 -460 -26 -23 -436 -213 -459 -213 -9 0 -23 6
-31 14 -12 12 -7 66 34 388 27 205 48 376 49 380 0 17 77 92 134 133 122 87
262 143 359 144 33 1 49 -3 53 -14z"/>
<path d="M6305 4866 c-483 -221 -664 -308 -704 -337 -62 -46 -117 -122 -141
-195 -20 -59 -80 -487 -80 -570 0 -82 33 -124 99 -124 23 0 819 368 867 401
68 46 128 133 153 224 13 47 71 500 71 557 0 21 -7 52 -15 67 -30 60 -78 55
-250 -23z m-165 -292 c0 -54 -51 -440 -62 -467 -9 -23 -32 -39 -117 -78 -118
-55 -146 -65 -155 -51 -10 17 50 455 67 489 13 25 39 43 119 82 121 58 148 63
148 25z"/>
</g>
</svg>
