<svg width="502.613" height="362.213" viewBox="0 0 376.96 271.66" class="displayed_equation" xmlns="http://www.w3.org/2000/svg">
  <defs>
    <clipPath id="svg528127907457tikz_00006l">
      <path d="M 18.554688 54 L 59 54 L 59 86 L 18.554688 86 Z M 18.554688 54" />
    </clipPath>
    <clipPath id="svg528127907457tikz_00006a">
      <path d="M 102 38.371094 L 187.636719 38.371094 L 187.636719 82 L 102 82 Z M 102 38.371094" />
    </clipPath>
    <clipPath id="svg528127907457tikz_00006c">
      <path d="M 102 96 L 187.636719 96 L 187.636719 140 L 102 140 Z M 102 96" />
    </clipPath>
    <clipPath id="svg528127907457tikz_00006d">
      <path d="M 102 96 L 187.636719 96 L 187.636719 141 L 102 141 Z M 102 96" />
    </clipPath>
    <clipPath id="svg528127907457tikz_00006e">
      <path d="M 102 154 L 187.636719 154 L 187.636719 198 L 102 198 Z M 102 154" />
    </clipPath>
    <clipPath id="svg528127907457tikz_00006f">
      <path d="M 102 67 L 187.636719 67 L 187.636719 111 L 102 111 Z M 102 67" />
    </clipPath>
    <clipPath id="svg528127907457tikz_00006g">
      <path d="M 102 212 L 187.636719 212 L 187.636719 255.925781 L 102 255.925781 Z M 102 212" />
    </clipPath>
    <clipPath id="svg528127907457tikz_00006h">
      <path d="M 102 125 L 187.636719 125 L 187.636719 169 L 102 169 Z M 102 125" />
    </clipPath>
    <clipPath id="svg528127907457tikz_00006i">
      <path d="M 102 124 L 187.636719 124 L 187.636719 169 L 102 169 Z M 102 124" />
    </clipPath>
    <clipPath id="svg528127907457tikz_00006j">
      <path d="M 102 183 L 187.636719 183 L 187.636719 227 L 102 227 Z M 102 183" />
    </clipPath>
    <clipPath id="svg528127907457tikz_00006k">
      <path d="M 102 182 L 187.636719 182 L 187.636719 227 L 102 227 Z M 102 182" />
    </clipPath>
    <clipPath id="svg528127907457tikz_00006b">
      <path d="M 102 38.371094 L 187.636719 38.371094 L 187.636719 83 L 102 83 Z M 102 38.371094" />
    </clipPath>
    <clipPath id="svg528127907457tikz_00006m">
      <path d="M 18.554688 53 L 59 53 L 59 86 L 18.554688 86 Z M 18.554688 53" />
    </clipPath>
    <clipPath id="svg528127907457tikz_00006n">
      <path d="M 18.554688 85 L 59 85 L 59 117 L 18.554688 117 Z M 18.554688 85" />
    </clipPath>
    <clipPath id="svg528127907457tikz_00006o">
      <path d="M 18.554688 84 L 59 84 L 59 117 L 18.554688 117 Z M 18.554688 84" />
    </clipPath>
    <clipPath id="svg528127907457tikz_00006p">
      <path d="M 18.554688 116 L 59 116 L 59 148 L 18.554688 148 Z M 18.554688 116" />
    </clipPath>
    <clipPath id="svg528127907457tikz_00006q">
      <path d="M 18.554688 115 L 59 115 L 59 148 L 18.554688 148 Z M 18.554688 115" />
    </clipPath>
    <clipPath id="svg528127907457tikz_00006r">
      <path d="M 18.554688 147 L 59 147 L 59 179 L 18.554688 179 Z M 18.554688 147" />
    </clipPath>
    <clipPath id="svg528127907457tikz_00006s">
      <path d="M 18.554688 146 L 59 146 L 59 179 L 18.554688 179 Z M 18.554688 146" />
    </clipPath>
    <clipPath id="svg528127907457tikz_00006t">
      <path d="M 18.554688 178 L 59 178 L 59 210 L 18.554688 210 Z M 18.554688 178" />
    </clipPath>
    <clipPath id="svg528127907457tikz_00006u">
      <path d="M 18.554688 177 L 59 177 L 59 210 L 18.554688 210 Z M 18.554688 177" />
    </clipPath>
    <clipPath id="svg528127907457tikz_00006v">
      <path d="M 18.554688 209 L 59 209 L 59 241 L 18.554688 241 Z M 18.554688 209" />
    </clipPath>
    <clipPath id="svg528127907457tikz_00006w">
      <path d="M 18.554688 208 L 59 208 L 59 241 L 18.554688 241 Z M 18.554688 208" />
    </clipPath>
  </defs>
  <g clip-path="url(#svg528127907457tikz_00006a)">
    <path d="M 187.246094 68.753906 C 187.246094 50.910156 102.40625 56.597656 102.40625 38.753906 L 102.40625 51.769531 C 102.40625 69.613281 187.246094 63.929688 187.246094 81.769531 Z M 187.246094 68.753906" fill="#5c8fc6" />
  </g>
  <g clip-path="url(#svg528127907457tikz_00006b)">
    <path d="M 1872.460938 2029.060938 C 1872.460938 2207.498438 1024.0625 2150.623438 1024.0625 2329.060938 L 1024.0625 2198.904688 C 1024.0625 2020.467188 1872.460938 2077.303125 1872.460938 1898.904688 Z M 1872.460938 2029.060938" transform="matrix(.1 0 0 -.1 0 271.66)" fill="none" stroke-width="7.63" stroke-linecap="round" stroke-linejoin="round" stroke="#000" stroke-miterlimit="10" />
  </g>
  <g clip-path="url(#svg528127907457tikz_00006c)">
    <path d="M 187.246094 126.679688 C 187.246094 108.835938 102.40625 114.519531 102.40625 96.679688 L 102.40625 109.695313 C 102.40625 127.535156 187.246094 121.851563 187.246094 139.695313 Z M 187.246094 126.679688" fill="#5c8fc6" />
  </g>
  <g clip-path="url(#svg528127907457tikz_00006d)">
    <path d="M 1872.460938 1449.803125 C 1872.460938 1628.240625 1024.0625 1571.404688 1024.0625 1749.803125 L 1024.0625 1619.646875 C 1024.0625 1441.248438 1872.460938 1498.084375 1872.460938 1319.646875 Z M 1872.460938 1449.803125" transform="matrix(.1 0 0 -.1 0 271.66)" fill="none" stroke-width="7.63" stroke-linecap="round" stroke-linejoin="round" stroke="#000" stroke-miterlimit="10" />
  </g>
  <g clip-path="url(#svg528127907457tikz_00006e)">
    <path d="M 1872.460938 870.584375 C 1872.460938 1049.021875 1024.0625 992.146875 1024.0625 1170.584375 L 1024.0625 1040.428125 C 1024.0625 861.990625 1872.460938 918.826563 1872.460938 740.428125 Z M 1872.460938 870.584375" transform="matrix(.1 0 0 -.1 0 271.66)" fill="#5c8fc6" stroke-width="7.63" stroke-linecap="round" stroke-linejoin="round" stroke="#000" stroke-miterlimit="10" />
  </g>
  <g clip-path="url(#svg528127907457tikz_00006f)">
    <path d="M 1024.0625 1742.06875 C 1024.0625 1920.467188 1872.460938 1863.63125 1872.460938 2042.06875 L 1872.460938 1911.873438 C 1872.460938 1733.475 1024.0625 1790.310938 1024.0625 1611.873438 Z M 1024.0625 1742.06875" transform="matrix(.1 0 0 -.1 0 271.66)" fill="#9ddffc" stroke-width="7.63" stroke-linecap="round" stroke-linejoin="round" stroke="#000" stroke-miterlimit="10" />
  </g>
  <g clip-path="url(#svg528127907457tikz_00006g)">
    <path d="M 1872.460938 291.326563 C 1872.460938 469.764063 1024.0625 412.928125 1024.0625 591.326563 L 1024.0625 461.170313 C 1024.0625 282.732813 1872.460938 339.607813 1872.460938 161.170313 Z M 1872.460938 291.326563" transform="matrix(.1 0 0 -.1 0 271.66)" fill="#5c8fc6" stroke-width="7.63" stroke-linecap="round" stroke-linejoin="round" stroke="#000" stroke-miterlimit="10" />
  </g>
  <g clip-path="url(#svg528127907457tikz_00006h)">
    <path d="M 102.40625 155.378906 C 102.40625 137.535156 187.246094 143.222656 187.246094 125.378906 L 187.246094 138.394531 C 187.246094 156.238281 102.40625 150.554688 102.40625 168.394531 Z M 102.40625 155.378906" fill="#9ddffc" />
  </g>
  <g clip-path="url(#svg528127907457tikz_00006i)">
    <path d="M 1024.0625 1162.810938 C 1024.0625 1341.248438 1872.460938 1284.373438 1872.460938 1462.810938 L 1872.460938 1332.654688 C 1872.460938 1154.217188 1024.0625 1211.053125 1024.0625 1032.654688 Z M 1024.0625 1162.810938" transform="matrix(.1 0 0 -.1 0 271.66)" fill="none" stroke-width="7.63" stroke-linecap="round" stroke-linejoin="round" stroke="#000" stroke-miterlimit="10" />
  </g>
  <g clip-path="url(#svg528127907457tikz_00006j)">
    <path d="M 102.40625 213.304688 C 102.40625 195.460938 187.246094 201.144531 187.246094 183.304688 L 187.246094 196.320313 C 187.246094 214.164063 102.40625 208.476563 102.40625 226.320313 Z M 102.40625 213.304688" fill="#9ddffc" />
  </g>
  <g clip-path="url(#svg528127907457tikz_00006k)">
    <path d="M 1024.0625 583.553125 C 1024.0625 761.990625 1872.460938 705.154688 1872.460938 883.553125 L 1872.460938 753.396875 C 1872.460938 574.959375 1024.0625 631.834375 1024.0625 453.396875 Z M 1024.0625 583.553125" transform="matrix(.1 0 0 -.1 0 271.66)" fill="none" stroke-width="7.63" stroke-linecap="round" stroke-linejoin="round" stroke="#000" stroke-miterlimit="10" />
  </g>
  <g clip-path="url(#svg528127907457tikz_00006l)">
    <path d="M 43.578125 85.210938 L 18.945313 85.210938 L 33.375 54.238281 L 58.011719 54.238281 Z M 43.578125 85.210938" fill="#9ddffc" />
  </g>
  <g clip-path="url(#svg528127907457tikz_00006m)">
    <path d="M 435.78125 1864.490625 L 189.453125 1864.490625 L 333.75 2174.217188 L 580.117188 2174.217188 Z M 435.78125 1864.490625" transform="matrix(.1 0 0 -.1 0 271.66)" fill="none" stroke-width="7.63" stroke-linecap="round" stroke-linejoin="round" stroke="#000" stroke-miterlimit="10" />
  </g>
  <g clip-path="url(#svg528127907457tikz_00006n)">
    <path d="M 33.375 116.179688 L 58.011719 116.179688 L 43.578125 85.210938 L 18.945313 85.210938 Z M 33.375 116.179688" fill="#5c8fc6" />
  </g>
  <g clip-path="url(#svg528127907457tikz_00006o)">
    <path d="M 333.75 1554.803125 L 580.117188 1554.803125 L 435.78125 1864.490625 L 189.453125 1864.490625 Z M 333.75 1554.803125" transform="matrix(.1 0 0 -.1 0 271.66)" fill="none" stroke-width="7.63" stroke-linecap="round" stroke-linejoin="round" stroke="#000" stroke-miterlimit="10" />
  </g>
  <g clip-path="url(#svg528127907457tikz_00006p)">
    <path d="M 43.578125 147.148438 L 18.945313 147.148438 L 33.375 116.179688 L 58.011719 116.179688 Z M 43.578125 147.148438" fill="#9ddffc" />
  </g>
  <g clip-path="url(#svg528127907457tikz_00006q)">
    <path d="M 435.78125 1245.115625 L 189.453125 1245.115625 L 333.75 1554.803125 L 580.117188 1554.803125 Z M 435.78125 1245.115625" transform="matrix(.1 0 0 -.1 0 271.66)" fill="none" stroke-width="7.63" stroke-linecap="round" stroke-linejoin="round" stroke="#000" stroke-miterlimit="10" />
  </g>
  <g clip-path="url(#svg528127907457tikz_00006r)">
    <path d="M 33.375 178.117188 L 58.011719 178.117188 L 43.578125 147.148438 L 18.945313 147.148438 Z M 33.375 178.117188" fill="#5c8fc6" />
  </g>
  <g clip-path="url(#svg528127907457tikz_00006s)">
    <path d="M 333.75 935.428125 L 580.117188 935.428125 L 435.78125 1245.115625 L 189.453125 1245.115625 Z M 333.75 935.428125" transform="matrix(.1 0 0 -.1 0 271.66)" fill="none" stroke-width="7.63" stroke-linecap="round" stroke-linejoin="round" stroke="#000" stroke-miterlimit="10" />
  </g>
  <g clip-path="url(#svg528127907457tikz_00006t)">
    <path d="M 43.578125 209.085938 L 18.945313 209.085938 L 33.375 178.117188 L 58.011719 178.117188 Z M 43.578125 209.085938" fill="#9ddffc" />
  </g>
  <g clip-path="url(#svg528127907457tikz_00006u)">
    <path d="M 435.78125 625.740625 L 189.453125 625.740625 L 333.75 935.428125 L 580.117188 935.428125 Z M 435.78125 625.740625" transform="matrix(.1 0 0 -.1 0 271.66)" fill="none" stroke-width="7.63" stroke-linecap="round" stroke-linejoin="round" stroke="#000" stroke-miterlimit="10" />
  </g>
  <g clip-path="url(#svg528127907457tikz_00006v)">
    <path d="M 33.375 240.058594 L 58.011719 240.058594 L 43.578125 209.085938 L 18.945313 209.085938 Z M 33.375 240.058594" fill="#5c8fc6" />
  </g>
  <g clip-path="url(#svg528127907457tikz_00006w)">
    <path d="M 333.75 316.014063 L 580.117188 316.014063 L 435.78125 625.740625 L 189.453125 625.740625 Z M 333.75 316.014063" transform="matrix(.1 0 0 -.1 0 271.66)" fill="none" stroke-width="7.63" stroke-linecap="round" stroke-linejoin="round" stroke="#000" stroke-miterlimit="10" />
  </g>
  <path d="M20.261719 20.953125C21.1875 20.710938 21.847656 20.261719 21.847656 19.269531 21.847656 18.164063 21.101563 17.53125 19.113281 17.53125L16.101563 17.53125 16.101563 17.863281C17.003906 17.863281 17.183594 17.988281 17.183594 18.878906L17.183594 23.441406C17.183594 24.367188 17.003906 24.527344 16.101563 24.527344L16.101563 24.859375 19.539063 24.859375C21.199219 24.859375 22.203125 24.15625 22.203125 22.886719 22.203125 21.667969 21.210938 21.15625 20.261719 21zM18.210938 20.820313L18.210938 18C18.433594 17.976563 18.667969 17.964844 18.878906 17.964844 20.242188 17.964844 20.742188 18.488281 20.742188 19.359375 20.742188 20.375 20.320313 20.820313 18.96875 20.820313zM18.210938 21.289063L18.992188 21.289063C20.027344 21.289063 21.03125 21.636719 21.03125 22.90625 21.03125 24.324219 19.972656 24.445313 19.015625 24.445313 18.746094 24.445313 18.476563 24.4375 18.210938 24.414063L18.210938 21.289063M27.328125 23.265625C26.972656 23.734375 26.625 24.136719 25.722656 24.136719 24.832031 24.136719 23.984375 23.433594 23.984375 21.894531L27.507813 21.894531C27.453125 20.328125 26.648438 19.449219 25.433594 19.449219 24.128906 19.449219 23.078125 20.339844 23.078125 22.203125 23.078125 24 24.117188 24.972656 25.457031 24.972656 26.605469 24.972656 27.140625 24.269531 27.542969 23.421875zM23.972656 21.480469C24.0625 20.441406 24.507813 19.894531 25.265625 19.894531 26.058594 19.894531 26.425781 20.652344 26.460938 21.480469L23.972656 21.480469M31.167969 23.855469C30.890625 24.167969 30.746094 24.3125 30.386719 24.3125 29.953125 24.3125 29.851563 24.046875 29.851563 23.253906L29.851563 20.050781 31.113281 20.050781 31.113281 19.582031 29.851563 19.582031 29.863281 18.054688 29.574219 18.054688C29.171875 19.003906 28.835938 19.472656 28.3125 19.792969L28.3125 20.050781 28.925781 20.050781 28.925781 23.566406C28.925781 24.570313 29.25 24.972656 29.996094 24.972656 30.710938 24.972656 30.945313 24.636719 31.382813 24.035156L31.167969 23.855469M34.835938 24.167969C34.902344 24.65625 35.015625 24.914063 35.507813 24.914063 36.074219 24.914063 36.34375 24.683594 36.710938 24.144531L36.542969 23.96875C36.386719 24.136719 36.230469 24.246094 36.019531 24.246094 35.785156 24.246094 35.683594 24.15625 35.683594 23.699219L35.683594 21.167969C35.683594 20.007813 35.226563 19.449219 34.011719 19.449219 32.796875 19.449219 32.046875 20.050781 32.046875 20.675781 32.046875 21.042969 32.292969 21.210938 32.515625 21.210938 32.828125 21.210938 33.007813 21.042969 33.007813 20.699219 33.007813 20.027344 33.117188 19.792969 33.753906 19.792969 34.421875 19.792969 34.757813 20.164063 34.757813 21.132813L34.757813 21.625C33.796875 21.925781 31.824219 22.214844 31.824219 23.6875 31.824219 24.402344 32.292969 24.9375 33.152344 24.9375 33.867188 24.9375 34.265625 24.625 34.792969 24.167969zM34.757813 23.832031C34.378906 24.144531 33.976563 24.324219 33.609375 24.324219 33.128906 24.324219 32.804688 23.980469 32.804688 23.421875 32.804688 22.550781 33.742188 22.25 34.757813 21.992188L34.757813 23.832031M39.835938 23.03125L39.867188 24.949219 40.101563 24.949219 40.335938 24.691406 40.359375 24.691406C40.648438 24.816406 40.984375 24.984375 41.632813 24.984375 42.636719 24.984375 43.507813 24.578125 43.507813 23.53125 43.507813 22.707031 42.960938 22.292969 41.945313 21.757813 41.007813 21.277344 40.640625 21 40.640625 20.566406 40.640625 20.0625 41.027344 19.828125 41.542969 19.828125 42.222656 19.828125 42.636719 20.152344 42.882813 21.210938L43.179688 21.210938 43.148438 19.503906 42.925781 19.503906 42.734375 19.738281 42.726563 19.738281C42.445313 19.605469 42.109375 19.449219 41.554688 19.449219 40.59375 19.449219 39.847656 19.941406 39.847656 20.855469 39.847656 21.679688 40.304688 22.070313 41.320313 22.582031 42.355469 23.097656 42.570313 23.308594 42.570313 23.832031 42.570313 24.359375 42.167969 24.570313 41.609375 24.570313 40.78125 24.570313 40.359375 24.179688 40.125 23.03125L39.835938 23.03125M45.84375 20.855469C46.386719 20.351563 46.789063 20.164063 47.226563 20.164063 48.128906 20.164063 48.25 20.933594 48.25 21.847656L48.25 23.777344C48.25 24.3125 48.207031 24.535156 47.4375 24.535156L47.4375 24.859375 50.003906 24.859375 50.003906 24.535156C49.300781 24.535156 49.179688 24.324219 49.179688 23.734375L49.179688 21.511719C49.179688 20.597656 48.964844 19.449219 47.683594 19.449219 47.089844 19.449219 46.578125 19.703125 45.875 20.363281L45.84375 20.363281 45.84375 16.984375 45.539063 16.984375 44.046875 17.375 44.046875 17.6875C44.046875 17.6875 44.191406 17.664063 44.367188 17.664063 44.671875 17.664063 44.914063 17.71875 44.914063 18.109375L44.914063 23.820313C44.914063 24.445313 44.714844 24.535156 44.132813 24.535156L44.132813 24.859375 46.667969 24.859375 46.667969 24.535156C45.898438 24.535156 45.84375 24.359375 45.84375 23.777344L45.84375 20.855469M54.929688 23.265625C54.574219 23.734375 54.226563 24.136719 53.324219 24.136719 52.429688 24.136719 51.582031 23.433594 51.582031 21.894531L55.109375 21.894531C55.054688 20.328125 54.25 19.449219 53.03125 19.449219 51.726563 19.449219 50.679688 20.339844 50.679688 22.203125 50.679688 24 51.71875 24.972656 53.054688 24.972656 54.203125 24.972656 54.742188 24.269531 55.140625 23.421875zM51.570313 21.480469C51.660156 20.441406 52.109375 19.894531 52.867188 19.894531 53.65625 19.894531 54.027344 20.652344 54.058594 21.480469L51.570313 21.480469M60.128906 23.265625C59.773438 23.734375 59.425781 24.136719 58.523438 24.136719 57.632813 24.136719 56.78125 23.433594 56.78125 21.894531L60.308594 21.894531C60.253906 20.328125 59.449219 19.449219 58.234375 19.449219 56.929688 19.449219 55.878906 20.339844 55.878906 22.203125 55.878906 24 56.917969 24.972656 58.257813 24.972656 59.40625 24.972656 59.941406 24.269531 60.34375 23.421875zM56.773438 21.480469C56.859375 20.441406 57.308594 19.894531 58.066406 19.894531 58.859375 19.894531 59.226563 20.652344 59.257813 21.480469L56.773438 21.480469M63.96875 23.855469C63.691406 24.167969 63.546875 24.3125 63.1875 24.3125 62.753906 24.3125 62.652344 24.046875 62.652344 23.253906L62.652344 20.050781 63.914063 20.050781 63.914063 19.582031 62.652344 19.582031 62.664063 18.054688 62.375 18.054688C61.972656 19.003906 61.636719 19.472656 61.113281 19.792969L61.113281 20.050781 61.726563 20.050781 61.726563 23.566406C61.726563 24.570313 62.050781 24.972656 62.796875 24.972656 63.511719 24.972656 63.746094 24.636719 64.179688 24.035156L63.96875 23.855469M119.566406 23.660156L119.566406 23.324219C118.964844 23.324219 118.742188 23.070313 118.417969 22.332031L115.773438 16.273438 115.316406 16.273438 112.949219 21.875C112.414063 23.148438 112.257813 23.324219 111.632813 23.324219L111.632813 23.660156 113.976563 23.660156 113.976563 23.324219C113.453125 23.324219 113.226563 23.257813 113.226563 22.945313 113.226563 22.746094 113.285156 22.578125 113.351563 22.398438L113.851563 21.214844 116.710938 21.214844 117.144531 22.222656C117.289063 22.554688 117.335938 22.757813 117.335938 22.914063 117.335938 23.304688 116.898438 23.324219 116.5625 23.324219L116.5625 23.660156zM116.542969 20.769531L114.019531 20.769531 115.28125 17.648438 115.316406 17.648438 116.542969 20.769531M122.5 23.335938C121.695313 23.335938 121.640625 23.179688 121.640625 22.53125L121.640625 15.78125 121.363281 15.78125 119.890625 16.175781 119.890625 16.476563C119.890625 16.476563 120.058594 16.453125 120.246094 16.453125 120.527344 16.453125 120.714844 16.476563 120.714844 16.933594L120.714844 22.53125C120.714844 23.15625 120.671875 23.335938 119.933594 23.335938L119.933594 23.660156 122.5 23.660156 122.5 23.335938M124.765625 18.28125L124.484375 18.28125 123.078125 18.59375 123.078125 18.917969C123.078125 18.917969 123.289063 18.894531 123.4375 18.894531 123.804688 18.894531 123.859375 19.039063 123.859375 19.464844L123.859375 24.988281C123.859375 25.613281 123.746094 25.800781 123.046875 25.800781L123.046875 26.113281 125.867188 26.113281 125.867188 25.789063C124.996094 25.789063 124.785156 25.644531 124.785156 24.921875L124.785156 23.457031 124.828125 23.457031C125.15625 23.683594 125.53125 23.769531 125.957031 23.769531 127.296875 23.769531 128.398438 22.644531 128.398438 20.746094 128.398438 19.285156 127.632813 18.25 126.527344 18.25 125.867188 18.25 125.332031 18.59375 124.796875 19.21875L124.765625 19.21875zM124.785156 19.6875C124.996094 19.410156 125.476563 19.007813 126.070313 19.007813 126.894531 19.007813 127.386719 19.65625 127.386719 21.058594 127.386719 22.613281 126.792969 23.335938 126.011719 23.335938 125.386719 23.335938 124.996094 22.835938 124.785156 22.601563L124.785156 19.6875M130.84375 19.65625C131.386719 19.152344 131.789063 18.964844 132.226563 18.964844 133.128906 18.964844 133.253906 19.734375 133.253906 20.648438L133.253906 22.578125C133.253906 23.113281 133.207031 23.335938 132.4375 23.335938L132.4375 23.660156 135.003906 23.660156 135.003906 23.335938C134.300781 23.335938 134.179688 23.125 134.179688 22.53125L134.179688 20.3125C134.179688 19.398438 133.964844 18.25 132.683594 18.25 132.089844 18.25 131.578125 18.503906 130.875 19.164063L130.84375 19.164063 130.84375 15.78125 130.539063 15.78125 129.046875 16.175781 129.046875 16.488281C129.046875 16.488281 129.191406 16.464844 129.367188 16.464844 129.671875 16.464844 129.914063 16.519531 129.914063 16.910156L129.914063 22.621094C129.914063 23.246094 129.714844 23.335938 129.132813 23.335938L129.132813 23.660156 131.667969 23.660156 131.667969 23.335938C130.898438 23.335938 130.84375 23.15625 130.84375 22.578125L130.84375 19.65625M138.734375 22.96875C138.804688 23.457031 138.914063 23.714844 139.40625 23.714844 139.976563 23.714844 140.242188 23.480469 140.609375 22.945313L140.445313 22.769531C140.289063 22.933594 140.132813 23.046875 139.917969 23.046875 139.683594 23.046875 139.585938 22.957031 139.585938 22.5L139.585938 19.96875C139.585938 18.808594 139.128906 18.25 137.910156 18.25 136.695313 18.25 135.945313 18.851563 135.945313 19.476563 135.945313 19.84375 136.191406 20.011719 136.414063 20.011719 136.726563 20.011719 136.90625 19.84375 136.90625 19.5 136.90625 18.828125 137.019531 18.59375 137.65625 18.59375 138.324219 18.59375 138.65625 18.964844 138.65625 19.933594L138.65625 20.425781C137.699219 20.726563 135.722656 21.015625 135.722656 22.488281 135.722656 23.203125 136.191406 23.738281 137.050781 23.738281 137.765625 23.738281 138.167969 23.425781 138.691406 22.96875zM138.65625 22.632813C138.277344 22.945313 137.878906 23.125 137.507813 23.125 137.03125 23.125 136.707031 22.777344 136.707031 22.222656 136.707031 21.351563 137.640625 21.050781 138.65625 20.792969L138.65625 22.632813M145.34375 19.65625C145.886719 19.152344 146.289063 18.964844 146.726563 18.964844 147.628906 18.964844 147.753906 19.734375 147.753906 20.648438L147.753906 22.578125C147.753906 23.113281 147.707031 23.335938 146.9375 23.335938L146.9375 23.660156 149.503906 23.660156 149.503906 23.335938C148.800781 23.335938 148.679688 23.125 148.679688 22.53125L148.679688 20.3125C148.679688 19.398438 148.464844 18.25 147.183594 18.25 146.589844 18.25 146.078125 18.503906 145.375 19.164063L145.34375 19.164063 145.34375 15.78125 145.039063 15.78125 143.546875 16.175781 143.546875 16.488281C143.546875 16.488281 143.691406 16.464844 143.867188 16.464844 144.171875 16.464844 144.414063 16.519531 144.414063 16.910156L144.414063 22.621094C144.414063 23.246094 144.214844 23.335938 143.632813 23.335938L143.632813 23.660156 146.167969 23.660156 146.167969 23.335938C145.398438 23.335938 145.34375 23.15625 145.34375 22.578125L145.34375 19.65625M154.429688 22.066406C154.074219 22.53125 153.726563 22.933594 152.824219 22.933594 151.929688 22.933594 151.082031 22.230469 151.082031 20.691406L154.609375 20.691406C154.554688 19.128906 153.75 18.25 152.53125 18.25 151.226563 18.25 150.179688 19.140625 150.179688 21.003906 150.179688 22.800781 151.21875 23.769531 152.554688 23.769531 153.703125 23.769531 154.242188 23.070313 154.640625 22.222656zM151.070313 20.28125C151.160156 19.242188 151.609375 18.695313 152.367188 18.695313 153.15625 18.695313 153.527344 19.453125 153.558594 20.28125L151.070313 20.28125M157.898438 23.335938C157.097656 23.335938 157.042969 23.179688 157.042969 22.53125L157.042969 15.78125 156.761719 15.78125 155.289063 16.175781 155.289063 16.476563C155.289063 16.476563 155.457031 16.453125 155.648438 16.453125 155.925781 16.453125 156.117188 16.476563 156.117188 16.933594L156.117188 22.53125C156.117188 23.15625 156.070313 23.335938 155.335938 23.335938L155.335938 23.660156 157.898438 23.660156 157.898438 23.335938M159.816406 15.929688C159.425781 15.929688 159.179688 16.21875 159.179688 16.554688 159.179688 16.898438 159.4375 17.191406 159.816406 17.191406 160.207031 17.191406 160.453125 16.898438 160.453125 16.554688 160.453125 16.21875 160.207031 15.929688 159.816406 15.929688zM161.066406 23.347656C160.320313 23.347656 160.265625 23.179688 160.265625 22.53125L160.265625 18.28125 159.972656 18.28125 158.570313 18.59375 158.570313 18.917969C158.570313 18.917969 158.691406 18.894531 158.847656 18.894531 159.171875 18.894531 159.339844 18.941406 159.339844 19.421875L159.339844 22.53125C159.339844 23.167969 159.304688 23.347656 158.554688 23.347656L158.554688 23.660156 161.066406 23.660156 161.066406 23.347656M166.679688 23.660156L166.679688 23.335938C166.265625 23.335938 166.097656 23.136719 165.785156 22.691406L164.414063 20.746094 165.59375 19.230469C165.851563 18.90625 166.109375 18.707031 166.488281 18.707031L166.488281 18.382813 164.648438 18.382813 164.648438 18.695313C165.003906 18.695313 165.105469 18.796875 165.105469 18.964844 165.105469 19.140625 165.003906 19.308594 164.703125 19.722656L164.179688 20.480469 164.132813 20.480469 163.867188 19.988281C163.484375 19.363281 163.285156 19.128906 163.285156 18.953125 163.285156 18.785156 163.464844 18.695313 163.820313 18.695313L163.820313 18.382813 161.421875 18.382813 161.421875 18.707031C161.878906 18.707031 162.015625 18.816406 162.40625 19.375L163.5625 21.039063 162.226563 22.777344C161.859375 23.214844 161.65625 23.335938 161.277344 23.335938L161.277344 23.660156 163.140625 23.660156 163.140625 23.335938C162.773438 23.335938 162.640625 23.289063 162.640625 23.167969 162.640625 23.078125 162.796875 22.878906 162.90625 22.699219L163.820313 21.382813 163.867188 21.382813 164.089844 21.773438 164.792969 22.855469C164.847656 22.945313 164.871094 23.011719 164.871094 23.089844 164.871094 23.28125 164.734375 23.335938 164.34375 23.335938L164.34375 23.660156 166.679688 23.660156" />
  <path d="M 2383.359375 1786.053125 L 3645.625 1786.053125 L 3645.625 2002.459375 L 2383.359375 2002.459375 Z M 2383.359375 1786.053125" transform="matrix(.1 0 0 -.1 0 271.66)" fill="none" stroke-width="7.97" stroke-linecap="round" stroke-linejoin="round" stroke="#000" stroke-miterlimit="10" />
  <path d="M258.410156 79.75L258.332031 77.519531 258.039063 77.519531C257.984375 77.753906 257.871094 77.84375 257.695313 77.84375 257.425781 77.84375 257.179688 77.496094 256.164063 77.496094 255.007813 77.507813 254.046875 78.132813 254.046875 79.304688 254.046875 80.476563 254.949219 81.011719 255.84375 81.523438 256.757813 82.046875 257.695313 82.4375 257.695313 83.421875 257.695313 84.269531 257.171875 84.605469 256.335938 84.605469 255.195313 84.613281 254.628906 84.257813 254.234375 82.71875L253.890625 82.71875 253.992188 85.128906 254.339844 85.128906C254.347656 84.902344 254.480469 84.757813 254.636719 84.757813 254.894531 84.757813 255.328125 85.09375 256.492188 85.09375 257.785156 85.09375 258.753906 84.390625 258.753906 83.097656 258.753906 81.769531 257.648438 81.269531 256.65625 80.710938 255.820313 80.230469 255.015625 79.828125 255.015625 78.992188 255.015625 78.300781 255.453125 77.941406 256.210938 77.941406 257.339844 77.933594 257.761719 78.523438 258.074219 79.75L258.410156 79.75M263.828125 83.363281C263.472656 83.832031 263.128906 84.234375 262.222656 84.234375 261.332031 84.234375 260.484375 83.53125 260.484375 81.992188L264.007813 81.992188C263.953125 80.429688 263.148438 79.550781 261.933594 79.550781 260.628906 79.550781 259.578125 80.441406 259.578125 82.304688 259.578125 84.101563 260.617188 85.070313 261.957031 85.070313 263.105469 85.070313 263.640625 84.367188 264.042969 83.519531zM260.472656 81.578125C260.5625 80.542969 261.007813 79.996094 261.765625 79.996094 262.558594 79.996094 262.925781 80.753906 262.960938 81.578125L260.472656 81.578125M268.953125 83.308594C268.449219 83.953125 268.070313 84.234375 267.34375 84.234375 266.195313 84.234375 265.648438 83.277344 265.648438 81.914063 265.648438 80.632813 266.195313 79.960938 267.101563 79.960938 268.058594 79.960938 267.691406 81.234375 268.515625 81.234375 268.828125 81.234375 268.984375 81.054688 268.984375 80.730469 268.984375 80.085938 268.339844 79.550781 267.289063 79.550781 265.683594 79.550781 264.769531 80.6875 264.769531 82.4375 264.769531 83.988281 265.605469 85.070313 267 85.070313 268.195313 85.070313 268.738281 84.367188 269.164063 83.464844L268.953125 83.308594M272.277344 79.550781C270.773438 79.550781 269.78125 80.644531 269.78125 82.261719 269.78125 84.066406 270.71875 85.070313 272.277344 85.070313 273.726563 85.070313 274.753906 84.089844 274.753906 82.214844 274.753906 80.566406 273.804688 79.550781 272.277344 79.550781zM272.234375 79.972656C273.226563 79.972656 273.726563 80.898438 273.726563 82.269531 273.726563 84.089844 273.238281 84.625 272.324219 84.625 271.363281 84.636719 270.816406 83.890625 270.816406 82.113281 270.816406 80.6875 271.386719 79.972656 272.234375 79.972656M280.464844 81.535156C280.464844 80.253906 279.984375 79.550781 278.972656 79.550781 278.269531 79.550781 277.777344 79.949219 277.175781 80.488281L277.128906 80.488281 277.140625 79.582031 276.882813 79.582031 275.46875 79.90625 275.46875 80.230469C275.46875 80.230469 275.578125 80.207031 275.769531 80.207031 276.070313 80.207031 276.238281 80.296875 276.238281 80.699219L276.238281 83.832031C276.238281 84.457031 276.203125 84.648438 275.457031 84.648438L275.457031 84.960938 278.011719 84.960938 278.011719 84.648438C277.207031 84.648438 277.164063 84.457031 277.164063 83.832031L277.164063 80.964844C277.496094 80.664063 277.910156 80.261719 278.515625 80.261719 279.015625 80.261719 279.539063 80.476563 279.539063 81.816406L279.539063 83.832031C279.539063 84.457031 279.507813 84.648438 278.714844 84.648438L278.714844 84.960938 281.292969 84.960938 281.292969 84.648438C280.542969 84.648438 280.464844 84.457031 280.464844 83.832031L280.464844 81.535156M287.335938 84.757813L287.335938 84.457031 287.101563 84.457031C286.6875 84.457031 286.542969 84.347656 286.542969 83.765625L286.542969 77.082031 286.242188 77.082031 284.835938 77.472656 284.835938 77.785156C284.835938 77.785156 285.023438 77.765625 285.125 77.765625 285.5625 77.765625 285.617188 77.863281 285.617188 78.355469L285.617188 79.816406C285.269531 79.628906 284.902344 79.550781 284.535156 79.550781 283.128906 79.550781 281.96875 80.675781 281.96875 82.515625 281.96875 83.945313 282.617188 85.050781 283.878906 85.050781 284.613281 85.050781 285.179688 84.625 285.605469 84.246094L285.648438 84.246094 285.648438 85.015625 285.90625 85.015625zM285.617188 83.832031C285.226563 84.101563 284.925781 84.246094 284.398438 84.246094 283.453125 84.246094 282.9375 83.621094 282.9375 82.082031 282.9375 80.675781 283.574219 79.996094 284.511719 79.996094 285.203125 79.996094 285.527344 80.429688 285.617188 80.886719L285.617188 83.832031M291.035156 84.269531C291.101563 84.757813 291.214844 85.015625 291.707031 85.015625 292.273438 85.015625 292.542969 84.78125 292.910156 84.246094L292.742188 84.066406C292.589844 84.234375 292.429688 84.347656 292.21875 84.347656 291.984375 84.347656 291.882813 84.257813 291.882813 83.800781L291.882813 81.269531C291.882813 80.105469 291.425781 79.550781 290.210938 79.550781 288.996094 79.550781 288.246094 80.152344 288.246094 80.777344 288.246094 81.144531 288.492188 81.3125 288.714844 81.3125 289.027344 81.3125 289.207031 81.144531 289.207031 80.800781 289.207031 80.128906 289.320313 79.894531 289.953125 79.894531 290.621094 79.894531 290.957031 80.261719 290.957031 81.234375L290.957031 81.722656C289.996094 82.027344 288.023438 82.316406 288.023438 83.789063 288.023438 84.503906 288.492188 85.039063 289.351563 85.039063 290.066406 85.039063 290.46875 84.726563 290.992188 84.269531zM290.957031 83.933594C290.578125 84.246094 290.175781 84.425781 289.808594 84.425781 289.328125 84.425781 289.007813 84.078125 289.007813 83.519531 289.007813 82.652344 289.941406 82.347656 290.957031 82.09375L290.957031 83.933594M295.042969 79.582031L294.773438 79.582031 293.390625 79.917969 293.390625 80.230469C293.390625 80.230469 293.511719 80.207031 293.734375 80.207031 294.136719 80.207031 294.136719 80.40625 294.136719 80.808594L294.136719 83.878906C294.136719 84.503906 294.058594 84.636719 293.324219 84.636719L293.324219 84.960938 296.113281 84.960938 296.113281 84.636719C295.277344 84.636719 295.0625 84.527344 295.0625 83.820313L295.0625 81.277344C295.332031 80.832031 295.6875 80.363281 295.945313 80.363281 296.078125 80.363281 296.300781 80.742188 296.671875 80.742188 296.914063 80.742188 297.160156 80.566406 297.160156 80.140625 297.160156 79.761719 296.949219 79.515625 296.515625 79.515625 295.976563 79.515625 295.644531 79.90625 295.074219 80.730469L295.042969 80.730469 295.042969 79.582031" />
  <path d="M302.699219 79.683594L300.804688 79.683594 300.804688 80.007813C301.171875 80.007813 301.429688 80.0625 301.429688 80.285156 301.429688 80.375 301.394531 80.476563 301.371094 80.566406L300.300781 83.832031 300.222656 83.832031 300.066406 83.253906 298.972656 80.800781C298.90625 80.644531 298.816406 80.453125 298.816406 80.320313 298.816406 80.117188 298.953125 80.019531 299.453125 80.019531L299.453125 79.683594 297.066406 79.683594 297.066406 80.007813C297.46875 80.007813 297.621094 80.152344 297.734375 80.40625L299.375 83.988281C299.507813 84.289063 299.710938 84.757813 299.710938 84.902344 299.710938 85.226563 299.074219 86.613281 298.71875 86.613281 298.4375 86.613281 298.203125 86.367188 297.8125 86.367188 297.511719 86.367188 297.289063 86.511719 297.289063 86.847656 297.289063 87.269531 297.613281 87.425781 298.113281 87.425781 299.019531 87.425781 299.566406 86.847656 300.191406 85.203125L301.929688 80.632813C302.085938 80.195313 302.253906 80.007813 302.699219 80.007813L302.699219 79.683594M310.210938 79.75L310.132813 77.519531 309.839844 77.519531C309.785156 77.753906 309.671875 77.84375 309.496094 77.84375 309.226563 77.84375 308.980469 77.496094 307.964844 77.496094 306.804688 77.507813 305.847656 78.132813 305.847656 79.304688 305.847656 80.476563 306.75 81.011719 307.640625 81.523438 308.558594 82.046875 309.496094 82.4375 309.496094 83.421875 309.496094 84.269531 308.96875 84.605469 308.132813 84.605469 306.996094 84.613281 306.425781 84.257813 306.035156 82.71875L305.691406 82.71875 305.789063 85.128906 306.136719 85.128906C306.148438 84.902344 306.28125 84.757813 306.4375 84.757813 306.695313 84.757813 307.128906 85.09375 308.289063 85.09375 309.585938 85.09375 310.554688 84.390625 310.554688 83.097656 310.554688 81.769531 309.449219 81.269531 308.457031 80.710938 307.621094 80.230469 306.816406 79.828125 306.816406 78.992188 306.816406 78.300781 307.253906 77.941406 308.011719 77.941406 309.136719 77.933594 309.5625 78.523438 309.871094 79.75L310.210938 79.75M314.167969 83.953125C313.890625 84.269531 313.746094 84.414063 313.386719 84.414063 312.953125 84.414063 312.851563 84.144531 312.851563 83.355469L312.851563 80.152344 314.113281 80.152344 314.113281 79.683594 312.851563 79.683594 312.863281 78.15625 312.574219 78.15625C312.171875 79.101563 311.839844 79.570313 311.3125 79.894531L311.3125 80.152344 311.925781 80.152344 311.925781 83.664063C311.925781 84.667969 312.25 85.070313 312.996094 85.070313 313.710938 85.070313 313.945313 84.738281 314.382813 84.136719L314.167969 83.953125M316.542969 79.582031L316.273438 79.582031 314.890625 79.917969 314.890625 80.230469C314.890625 80.230469 315.011719 80.207031 315.234375 80.207031 315.636719 80.207031 315.636719 80.40625 315.636719 80.808594L315.636719 83.878906C315.636719 84.503906 315.558594 84.636719 314.824219 84.636719L314.824219 84.960938 317.613281 84.960938 317.613281 84.636719C316.777344 84.636719 316.5625 84.527344 316.5625 83.820313L316.5625 81.277344C316.832031 80.832031 317.1875 80.363281 317.445313 80.363281 317.578125 80.363281 317.800781 80.742188 318.171875 80.742188 318.414063 80.742188 318.660156 80.566406 318.660156 80.140625 318.660156 79.761719 318.449219 79.515625 318.015625 79.515625 317.476563 79.515625 317.144531 79.90625 316.574219 80.730469L316.542969 80.730469 316.542969 79.582031M324.726563 84.457031L324.613281 84.457031C324.078125 84.457031 323.945313 84.378906 323.945313 83.722656L323.945313 79.628906 323.675781 79.628906 322.113281 79.792969 322.113281 80.105469C322.828125 80.105469 323.015625 80.164063 323.015625 80.753906L323.015625 83.6875C322.570313 84.078125 322.214844 84.355469 321.644531 84.355469 321.066406 84.355469 320.640625 84.023438 320.640625 82.886719L320.640625 79.628906 320.394531 79.628906 318.957031 79.792969 318.957031 80.105469C319.558594 80.117188 319.714844 80.164063 319.714844 80.765625L319.714844 83.03125C319.714844 84.546875 320.25 85.070313 321.175781 85.070313 321.890625 85.070313 322.414063 84.738281 323.007813 84.15625L323.0625 84.15625 323.0625 85.015625 323.308594 85.015625 324.726563 84.757813 324.726563 84.457031M329.652344 83.308594C329.148438 83.953125 328.769531 84.234375 328.046875 84.234375 326.898438 84.234375 326.351563 83.277344 326.351563 81.914063 326.351563 80.632813 326.898438 79.960938 327.800781 79.960938 328.757813 79.960938 328.390625 81.234375 329.21875 81.234375 329.53125 81.234375 329.6875 81.054688 329.6875 80.730469 329.6875 80.085938 329.039063 79.550781 327.988281 79.550781 326.382813 79.550781 325.46875 80.6875 325.46875 82.4375 325.46875 83.988281 326.304688 85.070313 327.699219 85.070313 328.894531 85.070313 329.4375 84.367188 329.863281 83.464844L329.652344 83.308594M333.367188 83.953125C333.089844 84.269531 332.945313 84.414063 332.589844 84.414063 332.152344 84.414063 332.054688 84.144531 332.054688 83.355469L332.054688 80.152344 333.3125 80.152344 333.3125 79.683594 332.054688 79.683594 332.0625 78.15625 331.773438 78.15625C331.371094 79.101563 331.039063 79.570313 330.511719 79.894531L330.511719 80.152344 331.128906 80.152344 331.128906 83.664063C331.128906 84.667969 331.449219 85.070313 332.195313 85.070313 332.910156 85.070313 333.144531 84.738281 333.582031 84.136719L333.367188 83.953125M339.625 84.457031L339.511719 84.457031C338.976563 84.457031 338.84375 84.378906 338.84375 83.722656L338.84375 79.628906 338.574219 79.628906 337.015625 79.792969 337.015625 80.105469C337.726563 80.105469 337.917969 80.164063 337.917969 80.753906L337.917969 83.6875C337.472656 84.078125 337.113281 84.355469 336.546875 84.355469 335.964844 84.355469 335.539063 84.023438 335.539063 82.886719L335.539063 79.628906 335.296875 79.628906 333.855469 79.792969 333.855469 80.105469C334.460938 80.117188 334.617188 80.164063 334.617188 80.765625L334.617188 83.03125C334.617188 84.546875 335.148438 85.070313 336.078125 85.070313 336.789063 85.070313 337.316406 84.738281 337.90625 84.15625L337.964844 84.15625 337.964844 85.015625 338.207031 85.015625 339.625 84.757813 339.625 84.457031M342.042969 79.582031L341.773438 79.582031 340.390625 79.917969 340.390625 80.230469C340.390625 80.230469 340.511719 80.207031 340.734375 80.207031 341.136719 80.207031 341.136719 80.40625 341.136719 80.808594L341.136719 83.878906C341.136719 84.503906 341.058594 84.636719 340.324219 84.636719L340.324219 84.960938 343.113281 84.960938 343.113281 84.636719C342.277344 84.636719 342.0625 84.527344 342.0625 83.820313L342.0625 81.277344C342.332031 80.832031 342.6875 80.363281 342.945313 80.363281 343.078125 80.363281 343.300781 80.742188 343.671875 80.742188 343.914063 80.742188 344.160156 80.566406 344.160156 80.140625 344.160156 79.761719 343.949219 79.515625 343.515625 79.515625 342.976563 79.515625 342.644531 79.90625 342.074219 80.730469L342.042969 80.730469 342.042969 79.582031M348.828125 83.363281C348.472656 83.832031 348.128906 84.234375 347.222656 84.234375 346.332031 84.234375 345.484375 83.53125 345.484375 81.992188L349.007813 81.992188C348.953125 80.429688 348.148438 79.550781 346.933594 79.550781 345.628906 79.550781 344.578125 80.441406 344.578125 82.304688 344.578125 84.101563 345.617188 85.070313 346.957031 85.070313 348.105469 85.070313 348.640625 84.367188 349.042969 83.519531zM345.472656 81.578125C345.5625 80.542969 346.007813 79.996094 346.765625 79.996094 347.558594 79.996094 347.925781 80.753906 347.960938 81.578125L345.472656 81.578125" />
  <path d="M 1982.539063 1876.248438 L 2383.359375 1876.248438" transform="matrix(.1 0 0 -.1 0 271.66)" fill="none" stroke-width="7.97" stroke-linecap="round" stroke-linejoin="round" stroke="#000" stroke-miterlimit="10" />
  <path d="M 194.390625 84.035156 L 199.859375 86.101563 L 198.054688 84.035156 L 199.859375 81.972656" />
  <path d="M 1943.90625 1876.248438 L 1998.59375 1855.584375 L 1980.546875 1876.248438 L 1998.59375 1896.873438 Z M 1943.90625 1876.248438" transform="matrix(.1 0 0 -.1 0 271.66)" fill="none" stroke-width="7.97" stroke-linecap="round" stroke="#000" stroke-miterlimit="10" />
</svg>